<svg width="54" height="54" viewBox="0 0 54 54" fill="none" xmlns="http://www.w3.org/2000/svg">
<g filter="url(#filter0_d_1_189)">
<circle cx="26.7998" cy="22.8" r="20.5" fill="#AA56FF"/>
</g>
<path d="M29.6065 35.3C29.3721 35.7041 29.0356 36.0395 28.6308 36.2727C28.226 36.5059 27.767 36.6286 27.2998 36.6286C26.8326 36.6286 26.3737 36.5059 25.9688 36.2727C25.564 36.0395 25.2276 35.7041 24.9931 35.3M35.2998 17.9667C35.2998 15.8449 34.457 13.8101 32.9567 12.3098C31.4564 10.8095 29.4215 9.96667 27.2998 9.96667C25.1781 9.96667 23.1432 10.8095 21.643 12.3098C20.1427 13.8101 19.2998 15.8449 19.2998 17.9667C19.2998 27.3 15.2998 29.9667 15.2998 29.9667H39.2998C39.2998 29.9667 35.2998 27.3 35.2998 17.9667Z" stroke="white" stroke-width="3" stroke-linecap="round" stroke-linejoin="round"/>
<circle cx="41.2998" cy="7.30005" r="5" fill="#FF0000"/>
<defs>
<filter id="filter0_d_1_189" x="-0.000195503" y="4.86374e-05" width="53.6" height="53.6" filterUnits="userSpaceOnUse" color-interpolation-filters="sRGB">
<feFlood flood-opacity="0" result="BackgroundImageFix"/>
<feColorMatrix in="SourceAlpha" type="matrix" values="0 0 0 0 0 0 0 0 0 0 0 0 0 0 0 0 0 0 127 0" result="hardAlpha"/>
<feOffset dy="4"/>
<feGaussianBlur stdDeviation="3.15"/>
<feComposite in2="hardAlpha" operator="out"/>
<feColorMatrix type="matrix" values="0 0 0 0 0 0 0 0 0 0 0 0 0 0 0 0 0 0 0.25 0"/>
<feBlend mode="normal" in2="BackgroundImageFix" result="effect1_dropShadow_1_189"/>
<feBlend mode="normal" in="SourceGraphic" in2="effect1_dropShadow_1_189" result="shape"/>
</filter>
</defs>
</svg>
